Simulation
nRows=31
nColumns=15
endheader
time  TH_x TH_y TH_z SC_y  SC_z  SC_x  AC_y  AC_z  AC_x  GH_y  GH_z  GH_yy  EL_x  PS_y
1.4749999999999996  0.000000  0.000000  0.000000  -38.92530621316998  6.1934290614595024  34.43273193183002  55.447950337917156  13.215440007980883  6.18462109637089  -18.72752703715079  33.134532131908465  -2.7407187225331064  23.625484156060274  120.000000
1.5044999999999995  0.000000  0.000000  0.000000  -39.03372852482475  6.1514793232896325  35.3149689050381  55.671223096999505  12.6390947607225  5.969051711267952  -19.106079799047762  33.197198356613214  -2.3585525372394702  23.690778174729076  120.000000
1.5339999999999996  0.000000  0.000000  0.000000  -39.057869413980825  6.1066059225548015  36.02860767000982  55.830326616025665  12.1196454541957  5.678318212251205  -19.29237307782158  33.136944947157914  -2.0284474712609004  23.71140068679642  120.000000
1.5634999999999994  0.000000  0.000000  0.000000  -38.99024397545186  6.061904976905737  36.56299832305699  55.91884393000019  11.658078947519964  5.297491652677022  -19.277708665919597  32.946906931679756  -1.7592353495137771  23.69135126820678  120.000000
1.5929999999999995  0.000000  0.000000  0.000000  -38.82860718592422  6.021001816102784  36.91016578353901  55.930492643126485  11.255013144451588  4.81645797735016  -19.053553885735035  32.619874283898525  -1.5703413389463567  23.635688190916696  120.000000
1.6224999999999996  0.000000  0.000000  0.000000  -38.57751290319105  5.986554349561302  37.067147714426774  55.86060613981635  10.910623771322097  4.230701792923119  -18.61193693087853  32.14898007826513  -1.4912146368668757  23.55048233049825  120.000000
1.6519999999999995  0.000000  0.000000  0.000000  -38.248026435126846  5.95862747944106  37.036304720606324  55.70798511104797  10.625152096914327  3.542118076963479  -17.945627351974096  31.52880157593433  -1.5577813242831224  23.44252072001169  120.000000
1.6814999999999996  0.000000  0.000000  0.000000  -37.856559004264206  5.934507046454696  36.823580908812474  55.47844575141882  10.39843032680093  2.7601961581466  -17.048659145805267  30.757561007042145  -1.8070000302391558  23.318478504286016  120.000000
1.7109999999999994  0.000000  0.000000  0.000000  -37.42456597762117  5.910627172436522  36.43391268747065  55.19070356592229  10.227478866800872  1.9034283059289707  -15.91768018494366  29.841181845980035  -2.2707420966476946  23.18390429951236  120.000000
1.7404999999999995  0.000000  0.000000  0.000000  -36.97887087601903  5.886352699650277  35.86518766857833  54.88093825782575  10.101437429578086  1.000523551722029  -14.553967595528285  28.79940494830711  -2.969559753268755  23.041864730918604  120.000000
1.7699999999999996  0.000000  0.000000  0.000000  -36.54975431148699  5.864827365647516  35.10509669734244  54.59969467758405  9.997417542248785  0.09053166581070322  -12.965861954783934  27.6709935888877  -3.906983737261091  22.89231283883101  120.000000
1.7994999999999994  0.000000  0.000000  0.000000  -36.16441748697521  5.848424049800539  34.13426486141841  54.397802177255166  9.881469785957671  -0.7785877326242521  -11.170589205020407  26.51346643368152  -5.064599798997815  22.732015475338436  120.000000
1.8289999999999995  0.000000  0.000000  0.000000  -35.83867716505361  5.833500746579331  32.93316021730817  54.307234541951665  9.715847984620215  -1.5532821148331148  -9.195003892127895  25.395892363247693  -6.399002343280025  22.555180340472067  120.000000
1.8584999999999994  0.000000  0.000000  0.000000  -35.57190914812544  5.808945399574471  31.48941259924494  54.32798674395931  9.470671369167539  -2.1817891334473556  -7.075410135814537  24.387440756112227  -7.842339570862574  22.35454302077526  120.000000
1.8879999999999995  0.000000  0.000000  0.000000  -35.347659608869336  5.762042509556015  29.803079774942862  54.42604369672781  9.133145933418552  -2.6228271811753174  -4.85701373609831  23.54457092848683  -9.307743344617206  22.121949212472554  120.000000
1.9174999999999995  0.000000  0.000000  0.000000  -35.13924444337852  5.684434286912887  27.88827694146229  54.54297461465494  8.712622557336847  -2.853433696525274  -2.5913148667182497  22.89861616301989  -10.699020872513469  21.84982278055051  120.000000
1.9469999999999994  0.000000  0.000000  0.000000  -34.915510657667056  5.574900472047893  25.77417259995986  54.61204590562604  8.239238062090552  -2.8737378186195643  -0.3318121354315416  22.447094797404834  -11.923291480526965  21.533351288432684  120.000000
1.9764999999999995  0.000000  0.000000  0.000000  -34.646392987424264  5.440572593741988  23.506756831399212  54.575162764373204  7.754997707921996  -2.7046324322634985  1.8719625222958305  22.15325722823527  -12.904455829431386  21.17280582232117  120.000000
2.0059999999999993  0.000000  0.000000  0.000000  -34.30806057524082  5.293147851203031  21.147291030797195  54.397251502396536  7.302907458962336  -2.382564687253653  3.9802466896054622  21.955142483864  -13.594427229354904  20.77617933460676  120.000000
2.0354999999999994  0.000000  0.000000  0.000000  -33.88674003012057  5.144118088253325  18.766815511300955  54.07264218366516  6.916693707217679  -1.9532687153905939  5.965806707435416  21.779517042444088  -13.98026718313286  20.35908767805004  120.000000
2.0649999999999995  0.000000  0.000000  0.000000  -33.383431296670146  5.0011244108869315  16.438946055781475  53.62325937529486  6.614436657959557  -1.4639562953353022  7.814504671742878  21.55671204684562  -14.085085777800503  19.94204621539747  120.000000
2.0944999999999996  0.000000  0.000000  0.000000  -32.81541078948996  4.866188787808892  14.231560307880343  53.08988397571926  6.39854261156782  -0.9571239564250429  9.524628084672894  21.23246687923768  -13.96190732735461  19.546715555182093  120.000000
2.123999999999999  0.000000  0.000000  0.000000  -32.212954891470886  4.736726081904889  12.199279980196392  52.52068344228525  6.259890031749261  -0.466709600996561  11.106080415962465  20.773615470466687  -13.681896965366887  19.19124852816949  120.000000
2.1534999999999993  0.000000  0.000000  0.000000  -31.6128374051547  4.607808707945714  10.378286348295928  51.96081637523197  6.1837442462958405  -0.016129558133872932  12.58020399248848  20.168330190591774  -13.320093108425425  18.8873980483892  120.000000
2.1829999999999994  0.000000  0.000000  0.000000  -31.049521725062256  4.475370173428203  8.785020756615426  51.444400261781865  6.154579540892509  0.3815580243386072  13.979752087054763  19.422176249861437  -12.942012283251835  18.639046687876608  120.000000
2.2124999999999995  0.000000  0.000000  0.000000  -30.547362690851205  4.338726398889168  7.41607663474719  50.99018571897592  6.160416209598901  0.7229386730636412  15.34811047498878  18.552398207966732  -12.594414068939972  18.442260182899  120.000000
2.2419999999999995  0.000000  0.000000  0.000000  -30.116490828518934  4.20124778031107  6.252943403486786  50.60129524224946  6.193760853723541  1.0113728845369128  16.736581432968507  17.582120477243155  -12.302698511450375  18.28748591311726  120.000000
2.271499999999999  0.000000  0.000000  0.000000  -29.752951065265176  4.0700253271499145  5.272606126046248  50.26902119218231  6.247724133548016  1.2516335456622862  18.19916792956009  16.535839963061644  -12.07548386992839  18.16286751835678  120.000000
2.3009999999999993  0.000000  0.000000  0.000000  -29.44249438496125  3.9546486825769525  4.452484749474681  49.979240240911466  6.315487883400773  1.4484399415090272  19.785872412730097  15.437091626594585  -11.913763218054163  18.058075084361796  120.000000
2.3304999999999993  0.000000  0.000000  0.000000  -29.166535925102437  3.864585609702068  3.771292212030817  49.7193343401701  6.3911932721648235  1.6077545902642965  21.53585801449709  14.307997704515943  -11.821101133185383  17.967453998632703  120.000000
2.3599999999999994  0.000000  0.000000  0.000000  -28.908176698206248  3.8059891922496125  3.2098866903195535  49.48353640049641  6.4689683608520525  1.7376666769772864  23.471666902100544  13.16984337761328  -11.812115631260705  17.89155933534786  120.000000
